Coordinates
version=1
nRows=60
nColumns=12
inDegrees=yes

Units are S.I. units (second, meters, Newtons, ...)
Angles are in degrees

endheader
time	SC_y	SC_z	SC_x	AC_y	AC_z	AC_x	GH_y	GH_z	GH_yy	EL_x	PS_y
       0.0               -33.5          38.08          11.03          51.96          7.208         -18.72         -139.7          74.62          34.04          123.0           22.7
   0.04412              -33.49          38.08          11.04          51.96          7.204         -18.72         -139.6          74.61          34.05          123.0           22.7
   0.08824              -33.49          38.07          11.05          51.96          7.201         -18.72         -139.6           74.6          34.06          123.0           22.7
    0.1324              -33.49          38.07          11.06          51.97          7.197         -18.72         -139.6          74.59          34.07          123.0           22.7
    0.1765              -33.48          38.07          11.07          51.97          7.192         -18.72         -139.5          74.58          34.09          123.0           22.7
    0.2206              -33.48          38.07          11.08          51.97          7.188         -18.71         -139.5          74.57           34.1          122.9           22.7
    0.2647              -33.48          38.06          11.09          51.97          7.183         -18.71         -139.5          74.56          34.11          122.9           22.7
    0.3088              -33.47          38.06          11.11          51.97          7.178         -18.71         -139.4          74.54          34.13          122.9           22.7
     0.353              -33.47          38.06          11.12          51.98          7.172         -18.71         -139.4          74.53          34.14          122.9           22.7
    0.3971              -33.46          38.05          11.14          51.98          7.167         -18.71         -139.3          74.51          34.16          122.9           22.7
    0.4412              -33.46          38.05          11.16          51.98           7.16          -18.7         -139.3           74.5          34.18          122.9           22.7
    0.4853              -33.45          38.05          11.18          51.98          7.153          -18.7         -139.2          74.48           34.2          122.8           22.7
    0.5294              -33.44          38.04           11.2          51.99          7.146          -18.7         -139.1          74.46          34.22          122.8           22.7
    0.5736              -33.44          38.04          11.22          51.99          7.138         -18.69         -139.1          74.44          34.24          122.8          22.69
    0.6177              -33.43          38.03          11.24          51.99          7.129         -18.69         -139.0          74.41          34.27          122.8          22.69
    0.6618              -33.42          38.03          11.27           52.0           7.12         -18.69         -138.9          74.39          34.29          122.7          22.69
    0.7059              -33.42          38.02          11.29           52.0           7.11         -18.68         -138.8          74.36          34.32          122.7          22.69
    0.7501              -33.41          38.01          11.32          52.01          7.099         -18.68         -138.7          74.33          34.35          122.7          22.69
    0.7942               -33.4           38.0          11.36          52.01          7.087         -18.67         -138.6           74.3          34.39          122.6          22.69
    0.8383              -33.39           38.0          11.39          52.02          7.074         -18.67         -138.5          74.26          34.43          122.6          22.69
    0.8824              -33.37          37.99          11.43          52.02          7.059         -18.66         -138.4          74.23          34.47          122.6          22.69
    0.9265              -33.36          37.98          11.47          52.03          7.043         -18.65         -138.3          74.18          34.51          122.5          22.68
    0.9707              -33.35          37.97          11.52          52.04          7.026         -18.65         -138.1          74.14          34.56          122.5          22.68
     1.015              -33.33          37.96          11.57          52.05          7.006         -18.64         -138.0          74.08          34.62          122.4          22.68
     1.059              -33.31          37.94          11.63          52.06          6.984         -18.63         -137.8          74.03          34.68          122.4          22.68
     1.103              -33.29          37.93           11.7          52.07           6.96         -18.62         -137.6          73.96          34.75          122.3          22.68
     1.147              -33.27          37.91          11.77          52.08          6.933         -18.61         -137.3          73.89          34.83          122.2          22.67
     1.191              -33.24          37.89          11.86          52.09          6.902         -18.59         -137.1          73.81          34.92          122.1          22.67
     1.235              -33.22          37.87          11.95           52.1          6.868         -18.58         -136.8          73.71          35.01          122.0          22.67
      1.28              -33.18          37.85          12.06          52.12          6.829         -18.56         -136.5          73.61          35.13          121.9          22.66
     1.324              -33.15          37.82          12.18          52.14          6.784         -18.54         -136.1          73.49          35.25          121.8          22.66
     1.368               -33.1          37.79          12.32          52.16          6.733         -18.52         -135.6          73.35           35.4          121.6          22.65
     1.412              -33.05          37.75          12.48          52.19          6.673          -18.5         -135.1          73.19          35.57          121.5          22.65
     1.456               -33.0          37.71          12.66          52.22          6.605         -18.47         -134.5          73.01          35.77          121.3          22.64
       1.5              -32.93          37.66          12.88          52.25          6.524         -18.43         -133.9          72.79           36.0          121.0          22.63
     1.544              -32.85           37.6          13.14          52.29          6.429         -18.39         -133.1          72.54          36.27          120.8          22.62
     1.588              -32.76          37.53          13.45          52.34          6.316         -18.35         -132.1          72.24          36.59          120.4          22.61
     1.632              -32.65          37.45          13.81          52.39          6.181         -18.29         -130.9          71.88          36.98          120.0           22.6
     1.677              -32.51          37.35          14.26          52.46          6.017         -18.22         -129.6          71.44          37.45          119.6          22.58
     1.721              -32.35          37.23           14.8          52.55          5.817         -18.13         -127.9          70.91          38.02          119.0          22.56
     1.765              -32.14          37.08          15.47          52.65          5.571         -18.03         -125.8          70.25          38.73          118.3          22.54
     1.809              -31.89          36.89           16.3          52.78          5.263          -17.9         -123.1          69.42          39.61          117.4           22.5
     1.853              -31.57          36.65          17.35          52.94          4.875         -17.74         -119.8          68.39          40.72          116.3          22.47
     1.897              -31.16          36.35          18.69          53.15          4.383         -17.53         -115.7          67.07          42.13          114.9          22.42
     1.941              -30.64          35.97           20.4          53.42          3.752         -17.26         -110.3          65.38          43.93          113.1          22.35
     1.985              -29.98          35.47          22.59          53.76          2.943         -16.92         -103.4          63.22          46.25          110.7          22.27
      2.03              -29.12          34.84           25.4          54.19          1.909         -16.48         -94.62          60.46          49.21          107.8          22.17
     2.074              -28.05          34.05          28.92          54.74         0.6092         -15.93         -83.57          56.98          52.93          104.0          22.03
     2.118              -26.74          33.08          33.21          55.41        -0.9748         -15.26          -70.1          52.75          57.47           99.5          21.87
     2.162              -25.23          31.96          38.19          56.18         -2.811         -14.49         -54.49          47.84          62.72          94.22          21.69
     2.206              -23.59          30.75          43.58          57.02         -4.799         -13.65         -37.59          42.52          68.41          88.51          21.49
      2.25              -21.95          29.53          48.97          57.86         -6.787          -12.8         -20.69           37.2          74.11          82.81          21.29
     2.294              -20.43          28.41          53.95          58.63         -8.623         -12.03         -5.077           32.3          79.36          77.53           21.1
     2.338              -19.12          27.45          58.25           59.3         -10.21         -11.36           8.39          28.06           83.9          72.98          20.94
     2.383              -18.05          26.65          61.77          59.85         -11.51         -10.81          19.44          24.59          87.62          69.25          20.81
     2.427               -17.2          26.02          64.58          60.28         -12.54         -10.37          28.23          21.82          90.58          66.28           20.7
     2.471              -16.53          25.53          66.77          60.62         -13.35         -10.03          35.11          19.66          92.89          63.96          20.62
     2.515              -16.01          25.14          68.48          60.89         -13.98         -9.763          40.47          17.97           94.7          62.15          20.56
     2.559               -15.6          24.84          69.82           61.1         -14.47         -9.554          44.66          16.65          96.11          60.73          20.51
     2.603              -15.28           24.6          70.87          61.26         -14.86          -9.39          47.96          15.62          97.22          59.62          20.47
